<svg xmlns="http://www.w3.org/2000/svg" xmlns:xlink="http://www.w3.org/1999/xlink" width="500" zoomAndPan="magnify" viewBox="0 0 375 374.999991" height="500" preserveAspectRatio="xMidYMid meet" version="1.0"><defs><g/></defs><g fill="#ff5757" fill-opacity="1"><g transform="translate(149.973655, 75.307424)"><g><path d="M 12.515625 -18.4375 C 13.460938 -17.039062 13.945312 -15.5625 13.96875 -14 C 13.988281 -12.4375 13.535156 -10.90625 12.609375 -9.40625 C 11.679688 -7.90625 10.316406 -6.546875 8.515625 -5.328125 C 7.023438 -4.316406 5.703125 -3.570312 4.546875 -3.09375 C 3.390625 -2.613281 2.085938 -2.265625 0.640625 -2.046875 L -3.03125 -7.453125 C -1.46875 -7.640625 0.046875 -7.988281 1.515625 -8.5 C 2.992188 -9.019531 4.257812 -9.632812 5.3125 -10.34375 C 6.207031 -10.957031 6.757812 -11.566406 6.96875 -12.171875 C 7.175781 -12.773438 7.113281 -13.320312 6.78125 -13.8125 C 6.582031 -14.113281 6.316406 -14.320312 5.984375 -14.4375 C 5.648438 -14.5625 5.210938 -14.613281 4.671875 -14.59375 C 4.140625 -14.570312 2.820312 -14.378906 0.71875 -14.015625 C -1.195312 -13.671875 -2.734375 -13.5625 -3.890625 -13.6875 C -5.046875 -13.820312 -6.070312 -14.175781 -6.96875 -14.75 C -7.875 -15.320312 -8.703125 -16.164062 -9.453125 -17.28125 C -10.859375 -19.351562 -11.203125 -21.476562 -10.484375 -23.65625 C -9.765625 -25.832031 -8.085938 -27.8125 -5.453125 -29.59375 C -3.128906 -31.175781 -0.382812 -32.25 2.78125 -32.8125 L 4.09375 -26.859375 C 1.332031 -26.398438 -0.8125 -25.648438 -2.34375 -24.609375 C -3.132812 -24.078125 -3.613281 -23.550781 -3.78125 -23.03125 C -3.957031 -22.507812 -3.90625 -22.039062 -3.625 -21.625 C -3.320312 -21.1875 -2.820312 -20.945312 -2.125 -20.90625 C -1.4375 -20.875 0.226562 -21.078125 2.875 -21.515625 C 5.40625 -21.960938 7.382812 -21.941406 8.8125 -21.453125 C 10.25 -20.960938 11.484375 -19.957031 12.515625 -18.4375 Z M 12.515625 -18.4375 "/></g></g></g><g fill="#ff5757" fill-opacity="1"><g transform="translate(165.537242, 64.050881)"><g><path d="M 18.15625 -7.390625 L 15 -11.609375 L 6.8125 -8.28125 L 7.46875 -3.046875 L 0 0 L -2.078125 -28.609375 L 7 -32.296875 L 25.59375 -10.421875 Z M 11.328125 -16.609375 L 8.546875 -20.296875 C 7.921875 -21.109375 7.132812 -22.171875 6.1875 -23.484375 C 5.238281 -24.796875 4.578125 -25.738281 4.203125 -26.3125 C 4.335938 -25.695312 4.523438 -24.648438 4.765625 -23.171875 C 5.003906 -21.703125 5.40625 -18.789062 5.96875 -14.4375 Z M 11.328125 -16.609375 "/></g></g></g><g fill="#ff5757" fill-opacity="1"><g transform="translate(188.501746, 54.691721)"><g><path d="M 2.890625 -0.515625 L -1.890625 -27.265625 L 5.34375 -28.5625 L 9.078125 -7.640625 L 19.359375 -9.46875 L 20.40625 -3.640625 Z M 2.890625 -0.515625 "/></g></g></g><g fill="#ff5757" fill-opacity="1"><g transform="translate(207.862428, 51.065499)"><g><path d="M 19.0625 0.09375 L 2.9375 0.015625 L 3.0625 -27.15625 L 19.1875 -27.078125 L 19.15625 -21.1875 L 10.375 -21.234375 L 10.359375 -16.953125 L 18.5 -16.90625 L 18.46875 -11.015625 L 10.328125 -11.0625 L 10.3125 -5.9375 L 19.09375 -5.890625 Z M 19.0625 0.09375 "/></g></g></g><g fill="#ff5757" fill-opacity="1"><g transform="translate(226.9493, 51.395951)"><g/></g></g><g fill="#ff5757" fill-opacity="1"><g transform="translate(235.495802, 52.441421)"><g><path d="M 2.421875 -6.9375 L 3.734375 -12.59375 L 13.953125 -10.21875 L 12.640625 -4.5625 Z M 2.421875 -6.9375 "/></g></g></g><g fill="#ff5757" fill-opacity="1"><g transform="translate(246.036875, 54.86856)"><g/></g></g><g fill="#ff5757" fill-opacity="1"><g transform="translate(253.868825, 56.906365)"><g><path d="M 22.234375 1.671875 C 21.492188 3.179688 20.445312 4.335938 19.09375 5.140625 C 17.75 5.941406 16.195312 6.316406 14.4375 6.265625 C 12.675781 6.210938 10.816406 5.707031 8.859375 4.75 C 7.234375 3.957031 5.925781 3.175781 4.9375 2.40625 C 3.945312 1.644531 3 0.6875 2.09375 -0.46875 L 4.953125 -6.34375 C 5.898438 -5.082031 6.960938 -3.941406 8.140625 -2.921875 C 9.328125 -1.898438 10.488281 -1.113281 11.625 -0.5625 C 12.601562 -0.0820312 13.398438 0.0976562 14.015625 -0.015625 C 14.640625 -0.128906 15.082031 -0.457031 15.34375 -1 C 15.5 -1.320312 15.546875 -1.65625 15.484375 -2 C 15.429688 -2.34375 15.265625 -2.738281 14.984375 -3.1875 C 14.703125 -3.644531 13.875 -4.695312 12.5 -6.34375 C 11.257812 -7.84375 10.40625 -9.125 9.9375 -10.1875 C 9.476562 -11.257812 9.269531 -12.328125 9.3125 -13.390625 C 9.363281 -14.460938 9.679688 -15.601562 10.265625 -16.8125 C 11.367188 -19.050781 13.046875 -20.398438 15.296875 -20.859375 C 17.546875 -21.316406 20.101562 -20.847656 22.96875 -19.453125 C 25.488281 -18.222656 27.78125 -16.382812 29.84375 -13.9375 L 25.328125 -9.828125 C 23.554688 -11.984375 21.84375 -13.46875 20.1875 -14.28125 C 19.320312 -14.695312 18.625 -14.847656 18.09375 -14.734375 C 17.5625 -14.628906 17.1875 -14.351562 16.96875 -13.90625 C 16.726562 -13.425781 16.765625 -12.875 17.078125 -12.25 C 17.390625 -11.632812 18.394531 -10.289062 20.09375 -8.21875 C 21.738281 -6.25 22.707031 -4.519531 23 -3.03125 C 23.289062 -1.550781 23.035156 0.015625 22.234375 1.671875 Z M 22.234375 1.671875 "/></g></g></g><g fill="#ff5757" fill-opacity="1"><g transform="translate(271.381016, 64.799862)"><g><path d="M 15.453125 12.078125 L 17.53125 7.234375 L 10.578125 1.796875 L 6.359375 4.96875 L 0 0 L 23.78125 -16.046875 L 31.5 -10.015625 L 21.78125 17.015625 Z M 20.046875 1.5625 L 21.875 -2.6875 C 22.257812 -3.632812 22.78125 -4.847656 23.4375 -6.328125 C 24.101562 -7.804688 24.597656 -8.851562 24.921875 -9.46875 C 24.441406 -9.039062 23.625 -8.351562 22.46875 -7.40625 C 21.3125 -6.46875 18.984375 -4.664062 15.484375 -2 Z M 20.046875 1.5625 "/></g></g></g><g fill="#ff5757" fill-opacity="1"><g transform="translate(290.929619, 80.057286)"><g><path d="M 1.890625 2.25 L 22.71875 -15.203125 L 27.4375 -9.578125 L 11.140625 4.0625 L 17.859375 12.078125 L 13.328125 15.890625 Z M 1.890625 2.25 "/></g></g></g><g fill="#ff5757" fill-opacity="1"><g transform="translate(303.712066, 95.043279)"><g><path d="M 9.40625 16.578125 L 1.453125 2.546875 L 25.078125 -10.875 L 33.03125 3.15625 L 27.90625 6.078125 L 23.578125 -1.5625 L 19.859375 0.546875 L 23.875 7.625 L 18.75 10.53125 L 14.734375 3.453125 L 10.28125 5.984375 L 14.609375 13.625 Z M 9.40625 16.578125 "/></g></g></g><g fill="#ff5757" fill-opacity="1"><g transform="translate(312.926887, 111.7615)"><g/></g></g><g fill="#ff5757" fill-opacity="1"><g transform="translate(316.276443, 119.693654)"><g><path d="M 7.21875 -1.34375 L 12.78125 -3.03125 L 15.8125 7.015625 L 10.25 8.703125 Z M 7.21875 -1.34375 "/></g></g></g><g fill="#ff5757" fill-opacity="1"><g transform="translate(319.417619, 130.044434)"><g/></g></g><g fill="#ff5757" fill-opacity="1"><g transform="translate(321.550089, 137.851102)"><g><path d="M 9.625 20.109375 C 7.9375 20.210938 6.410156 19.878906 5.046875 19.109375 C 3.691406 18.347656 2.597656 17.191406 1.765625 15.640625 C 0.929688 14.085938 0.441406 12.226562 0.296875 10.0625 C 0.171875 8.257812 0.195312 6.734375 0.375 5.484375 C 0.550781 4.234375 0.910156 2.929688 1.453125 1.578125 L 7.96875 1.140625 C 7.34375 2.578125 6.878906 4.066406 6.578125 5.609375 C 6.285156 7.148438 6.179688 8.550781 6.265625 9.8125 C 6.335938 10.894531 6.578125 11.675781 6.984375 12.15625 C 7.398438 12.632812 7.90625 12.851562 8.5 12.8125 C 8.863281 12.789062 9.179688 12.664062 9.453125 12.4375 C 9.722656 12.21875 9.984375 11.875 10.234375 11.40625 C 10.492188 10.9375 10.988281 9.695312 11.71875 7.6875 C 12.40625 5.863281 13.09375 4.484375 13.78125 3.546875 C 14.476562 2.617188 15.300781 1.910156 16.25 1.421875 C 17.195312 0.929688 18.34375 0.640625 19.6875 0.546875 C 22.1875 0.378906 24.191406 1.15625 25.703125 2.875 C 27.222656 4.601562 28.09375 7.050781 28.3125 10.21875 C 28.5 13.03125 28.039062 15.9375 26.9375 18.9375 L 21.125 17.078125 C 22.125 14.460938 22.5625 12.234375 22.4375 10.390625 C 22.375 9.429688 22.160156 8.75 21.796875 8.34375 C 21.429688 7.9375 21 7.753906 20.5 7.796875 C 19.96875 7.828125 19.507812 8.128906 19.125 8.703125 C 18.738281 9.273438 18.078125 10.820312 17.140625 13.34375 C 16.242188 15.738281 15.222656 17.429688 14.078125 18.421875 C 12.929688 19.421875 11.445312 19.984375 9.625 20.109375 Z M 9.625 20.109375 "/></g></g></g><g fill="#ff5757" fill-opacity="1"><g transform="translate(323.424079, 156.96811)"><g><path d="M -2.78125 19.40625 L 2.453125 18.796875 L 3.703125 10.0625 L -1.140625 7.984375 L 0 0 L 25.75 12.625 L 24.359375 22.328125 L -3.90625 27.359375 Z M 8.625 18.15625 L 13.21875 17.625 C 14.238281 17.5 15.550781 17.351562 17.15625 17.1875 C 18.769531 17.019531 19.921875 16.925781 20.609375 16.90625 C 20.003906 16.695312 19.003906 16.328125 17.609375 15.796875 C 16.222656 15.273438 13.503906 14.15625 9.453125 12.4375 Z M 8.625 18.15625 "/></g></g></g><g fill="#ff5757" fill-opacity="1"><g transform="translate(319.922874, 181.517986)"><g><path d="M -1.015625 2.75 L 24.484375 12.109375 L 21.953125 19.015625 L 2.015625 11.703125 L -1.578125 21.515625 L -7.140625 19.46875 Z M -1.015625 2.75 "/></g></g></g><g fill="#ff5757" fill-opacity="1"><g transform="translate(313.288596, 200.064677)"><g><path d="M -9.6875 16.421875 L -1.5 2.53125 L 21.890625 16.34375 L 13.703125 30.234375 L 8.640625 27.234375 L 13.09375 19.671875 L 9.40625 17.5 L 5.28125 24.5 L 0.203125 21.5 L 4.328125 14.5 L -0.078125 11.90625 L -4.53125 19.46875 Z M -9.6875 16.421875 "/></g></g></g></svg>