<svg xmlns="http://www.w3.org/2000/svg" xmlns:xlink="http://www.w3.org/1999/xlink" width="500" zoomAndPan="magnify" viewBox="0 0 375 374.999991" height="500" preserveAspectRatio="xMidYMid meet" version="1.0"><defs><clipPath id="635e52230c"><path d="M 4.496094 5 L 373.496094 5 L 373.496094 374 L 4.496094 374 Z M 4.496094 5 " clip-rule="nonzero"/></clipPath></defs><path fill="#74945b" d="M 175.191406 290.367188 L 141.660156 279.40625 C 129.648438 257.878906 132.628906 254.308594 108.496094 240.035156 C 84.613281 225.925781 0.898438 224.886719 83.175781 282.554688 C 119.464844 308.015625 129.28125 288.988281 145.824219 292.445312 C 207.285156 305.289062 219.074219 372.003906 230.886719 371.722656 C 246.386719 357.195312 210.015625 344.015625 225.992188 322.011719 C 241.886719 300.144531 256.542969 306.804688 278.175781 300.0625 C 308.949219 290.480469 350.355469 234.078125 330.804688 212.773438 C 318.878906 205.101562 277.105469 227.921875 266.105469 235.988281 C 241.886719 253.664062 235.472656 269.34375 236.90625 298.011719 L 212.179688 321.53125 C 195.527344 306.636719 181.464844 285.054688 183.039062 260.238281 C 189.113281 250.402344 196.683594 250.09375 202.671875 232.980469 C 212.941406 203.5 196.429688 107.585938 172.378906 152.746094 C 161.660156 172.867188 149.113281 201.054688 150.070312 224.042969 C 150.828125 241.945312 154.992188 243.941406 166.78125 254.226562 C 170.519531 257.515625 175.753906 284.410156 175.191406 290.367188 Z M 128.71875 284.464844 C 128.214844 270.554688 117.300781 259.929688 105.960938 252.878906 C 89.367188 242.589844 80.816406 243.433594 61.433594 245.796875 C 63.148438 251.894531 95.695312 286.320312 128.71875 284.464844 Z M 177.863281 247.875 C 199.183594 228.257812 198.480469 180.625 184.726562 156.371094 C 170.71875 172.558594 142.277344 240.878906 177.863281 247.875 Z M 247.90625 290.675781 C 279.160156 303.660156 326.699219 254.703125 321.464844 224.324219 C 295.445312 225.757812 242.535156 259.480469 247.90625 290.675781 " fill-opacity="1" fill-rule="evenodd"/><g clip-path="url(#635e52230c)"><path fill="#00471e" d="M 350.679688 109.414062 L 221.527344 15.589844 C 220.355469 14.738281 219.152344 13.933594 217.914062 13.175781 C 216.679688 12.417969 215.414062 11.710938 214.125 11.054688 C 212.832031 10.394531 211.515625 9.789062 210.175781 9.234375 C 208.835938 8.679688 207.476562 8.179688 206.097656 7.730469 C 204.71875 7.28125 203.324219 6.890625 201.917969 6.550781 C 200.507812 6.210938 199.085938 5.929688 197.652344 5.703125 C 196.222656 5.476562 194.785156 5.304688 193.339844 5.191406 C 191.894531 5.078125 190.445312 5.023438 188.996094 5.023438 C 187.546875 5.023438 186.097656 5.078125 184.652344 5.191406 C 183.207031 5.304688 181.769531 5.476562 180.335938 5.703125 C 178.90625 5.929688 177.484375 6.210938 176.074219 6.550781 C 174.664062 6.890625 173.269531 7.28125 171.890625 7.730469 C 170.511719 8.179688 169.152344 8.679688 167.8125 9.234375 C 166.476562 9.789062 165.160156 10.394531 163.867188 11.054688 C 162.574219 11.710938 161.3125 12.417969 160.074219 13.175781 C 158.839844 13.933594 157.636719 14.738281 156.460938 15.589844 L 27.3125 109.414062 C 25.554688 110.691406 23.878906 112.066406 22.285156 113.535156 C 20.691406 115.007812 19.1875 116.570312 17.777344 118.21875 C 16.367188 119.871094 15.058594 121.59375 13.851562 123.398438 C 12.644531 125.203125 11.546875 127.070312 10.558594 129.003906 C 9.570312 130.933594 8.699219 132.917969 7.945312 134.953125 C 7.191406 136.988281 6.558594 139.058594 6.046875 141.167969 C 5.535156 143.277344 5.152344 145.410156 4.890625 147.566406 C 4.632812 149.71875 4.5 151.882812 4.496094 154.050781 L 4.496094 318.460938 C 4.496094 320.273438 4.585938 322.082031 4.761719 323.886719 C 4.941406 325.6875 5.207031 327.480469 5.558594 329.257812 C 5.914062 331.035156 6.351562 332.789062 6.878906 334.523438 C 7.40625 336.257812 8.015625 337.964844 8.707031 339.636719 C 9.402344 341.3125 10.175781 342.949219 11.03125 344.546875 C 11.886719 346.144531 12.816406 347.699219 13.824219 349.203125 C 14.832031 350.710938 15.910156 352.164062 17.058594 353.566406 C 18.210938 354.96875 19.425781 356.308594 20.707031 357.589844 C 21.988281 358.871094 23.332031 360.085938 24.730469 361.238281 C 26.132812 362.386719 27.585938 363.464844 29.09375 364.472656 C 30.601562 365.480469 32.15625 366.410156 33.753906 367.261719 C 35.351562 368.117188 36.988281 368.890625 38.664062 369.585938 C 40.339844 370.277344 42.042969 370.890625 43.777344 371.414062 C 45.511719 371.941406 47.269531 372.378906 49.046875 372.734375 C 50.824219 373.089844 52.617188 373.355469 54.421875 373.53125 C 56.222656 373.707031 58.03125 373.796875 59.84375 373.796875 L 318.144531 373.796875 C 319.957031 373.796875 321.765625 373.707031 323.570312 373.53125 C 325.375 373.355469 327.164062 373.089844 328.945312 372.734375 C 330.722656 372.378906 332.476562 371.941406 334.210938 371.414062 C 335.949219 370.890625 337.652344 370.277344 339.328125 369.585938 C 341 368.890625 342.636719 368.117188 344.238281 367.261719 C 345.835938 366.410156 347.390625 365.480469 348.894531 364.472656 C 350.402344 363.464844 351.859375 362.386719 353.257812 361.238281 C 354.660156 360.085938 356 358.871094 357.285156 357.589844 C 358.566406 356.308594 359.78125 354.96875 360.929688 353.566406 C 362.082031 352.164062 363.160156 350.710938 364.167969 349.203125 C 365.175781 347.699219 366.105469 346.144531 366.960938 344.546875 C 367.8125 342.949219 368.589844 341.3125 369.28125 339.636719 C 369.976562 337.964844 370.585938 336.257812 371.113281 334.523438 C 371.636719 332.789062 372.078125 331.035156 372.433594 329.257812 C 372.785156 327.480469 373.050781 325.6875 373.230469 323.886719 C 373.40625 322.082031 373.496094 320.273438 373.496094 318.460938 L 373.496094 154.050781 C 373.492188 151.882812 373.359375 149.71875 373.097656 147.566406 C 372.839844 145.410156 372.453125 143.277344 371.941406 141.167969 C 371.433594 139.058594 370.800781 136.988281 370.046875 134.953125 C 369.292969 132.917969 368.421875 130.933594 367.433594 129.003906 C 366.445312 127.070312 365.347656 125.203125 364.140625 123.398438 C 362.933594 121.59375 361.625 119.871094 360.210938 118.21875 C 358.800781 116.570312 357.300781 115.007812 355.703125 113.535156 C 354.109375 112.066406 352.433594 110.691406 350.679688 109.414062 Z M 361.195312 318.460938 C 361.195312 319.871094 361.125 321.277344 360.988281 322.679688 C 360.851562 324.082031 360.644531 325.476562 360.367188 326.859375 C 360.09375 328.242188 359.75 329.605469 359.339844 330.957031 C 358.933594 332.304688 358.457031 333.628906 357.917969 334.933594 C 357.378906 336.234375 356.777344 337.507812 356.113281 338.75 C 355.449219 339.992188 354.722656 341.199219 353.941406 342.371094 C 353.15625 343.546875 352.316406 344.675781 351.421875 345.765625 C 350.527344 346.855469 349.582031 347.898438 348.585938 348.894531 C 347.589844 349.890625 346.546875 350.835938 345.457031 351.730469 C 344.367188 352.625 343.234375 353.464844 342.0625 354.246094 C 340.890625 355.03125 339.683594 355.753906 338.4375 356.417969 C 337.195312 357.082031 335.921875 357.683594 334.621094 358.222656 C 333.316406 358.765625 331.992188 359.238281 330.640625 359.648438 C 329.292969 360.058594 327.925781 360.398438 326.542969 360.671875 C 325.160156 360.949219 323.769531 361.15625 322.363281 361.292969 C 320.960938 361.433594 319.554688 361.5 318.144531 361.5 L 59.84375 361.5 C 58.433594 361.5 57.027344 361.433594 55.625 361.292969 C 54.222656 361.15625 52.828125 360.949219 51.445312 360.671875 C 50.0625 360.398438 48.699219 360.058594 47.347656 359.648438 C 46 359.238281 44.671875 358.765625 43.371094 358.222656 C 42.066406 357.683594 40.796875 357.082031 39.550781 356.417969 C 38.308594 355.753906 37.101562 355.03125 35.929688 354.246094 C 34.753906 353.464844 33.625 352.625 32.535156 351.730469 C 31.445312 350.835938 30.402344 349.890625 29.40625 348.894531 C 28.40625 347.898438 27.460938 346.855469 26.566406 345.765625 C 25.671875 344.675781 24.832031 343.546875 24.050781 342.371094 C 23.265625 341.199219 22.542969 339.992188 21.878906 338.75 C 21.214844 337.507812 20.613281 336.234375 20.074219 334.933594 C 19.53125 333.628906 19.058594 332.304688 18.648438 330.957031 C 18.238281 329.605469 17.898438 328.242188 17.621094 326.859375 C 17.347656 325.476562 17.140625 324.082031 17.003906 322.679688 C 16.863281 321.277344 16.796875 319.871094 16.796875 318.460938 L 16.796875 154.050781 C 16.796875 152.359375 16.898438 150.675781 17.097656 148.996094 C 17.296875 147.316406 17.597656 145.652344 17.992188 144.007812 C 18.390625 142.363281 18.882812 140.746094 19.46875 139.160156 C 20.054688 137.574219 20.734375 136.027344 21.503906 134.519531 C 22.273438 133.011719 23.128906 131.554688 24.070312 130.152344 C 25.011719 128.746094 26.03125 127.398438 27.132812 126.113281 C 28.234375 124.828125 29.40625 123.609375 30.648438 122.464844 C 31.890625 121.316406 33.199219 120.246094 34.570312 119.253906 L 163.71875 25.425781 C 164.632812 24.765625 165.566406 24.136719 166.53125 23.550781 C 167.492188 22.960938 168.472656 22.410156 169.480469 21.898438 C 170.484375 21.386719 171.507812 20.914062 172.550781 20.480469 C 173.589844 20.050781 174.648438 19.660156 175.722656 19.3125 C 176.792969 18.964844 177.878906 18.65625 178.976562 18.394531 C 180.070312 18.132812 181.175781 17.910156 182.289062 17.734375 C 183.40625 17.558594 184.523438 17.425781 185.648438 17.339844 C 186.773438 17.25 187.898438 17.207031 189.027344 17.207031 C 190.152344 17.207031 191.28125 17.25 192.402344 17.339844 C 193.527344 17.425781 194.648438 17.558594 195.761719 17.734375 C 196.875 17.910156 197.980469 18.132812 199.078125 18.394531 C 200.175781 18.65625 201.257812 18.964844 202.332031 19.3125 C 203.402344 19.660156 204.460938 20.050781 205.503906 20.480469 C 206.542969 20.914062 207.566406 21.386719 208.574219 21.898438 C 209.578125 22.410156 210.5625 22.960938 211.523438 23.550781 C 212.484375 24.136719 213.421875 24.765625 214.332031 25.425781 L 343.484375 119.253906 C 344.851562 120.246094 346.152344 121.320312 347.394531 122.464844 C 348.636719 123.613281 349.804688 124.832031 350.902344 126.117188 C 352 127.40625 353.015625 128.75 353.953125 130.15625 C 354.894531 131.5625 355.746094 133.019531 356.511719 134.527344 C 357.28125 136.03125 357.957031 137.578125 358.539062 139.167969 C 359.125 140.753906 359.613281 142.367188 360.007812 144.011719 C 360.402344 145.65625 360.699219 147.316406 360.898438 148.996094 C 361.097656 150.675781 361.195312 152.363281 361.195312 154.050781 Z M 361.195312 318.460938 " fill-opacity="1" fill-rule="nonzero"/></g></svg>